
<svg xmlns="http://www.w3.org/2000/svg" style="display:none">
  <symbol id="sl-check" viewBox="0 0 24 24" fill="none" stroke="currentColor" stroke-width="1.6" stroke-linecap="round" stroke-linejoin="round">
    <path d="M5 12.5 10 17.5 19 6.5"></path>
  </symbol>
  <symbol id="sl-check-circle" viewBox="0 0 24 24" fill="none" stroke="currentColor" stroke-width="1.6" stroke-linecap="round" stroke-linejoin="round">
    <circle cx="12" cy="12" r="8.5"></circle><path d="M8.2 12.2 11 15 15.8 9.2"></path>
  </symbol>
  <symbol id="sl-lock" viewBox="0 0 24 24" fill="none" stroke="currentColor" stroke-width="1.6" stroke-linecap="round" stroke-linejoin="round">
    <rect x="5.5" y="10.5" width="13" height="9" rx="2"></rect><path d="M8 10.5V8a4 4 0 0 1 8 0v2.5"></path>
  </symbol>
  <symbol id="sl-play" viewBox="0 0 24 24" fill="none" stroke="currentColor" stroke-width="1.6" stroke-linecap="round" stroke-linejoin="round">
    <path d="M8 5.5 18.5 12 8 18.5V5.5Z"></path>
  </symbol>
  <symbol id="sl-bookmark" viewBox="0 0 24 24" fill="none" stroke="currentColor" stroke-width="1.6" stroke-linecap="round" stroke-linejoin="round">
    <path d="M7 4.5h10a1 1 0 0 1 1 1v14l-6-4-6 4v-14a1 1 0 0 1 1-1Z"></path>
  </symbol>
  <symbol id="sl-bookmark-fill" viewBox="0 0 24 24" fill="currentColor" stroke="currentColor" stroke-width="1.6" stroke-linejoin="round">
    <path d="M7 4.5h10a1 1 0 0 1 1 1v14l-6-4-6 4v-14a1 1 0 0 1 1-1Z"></path>
  </symbol>
  <symbol id="sl-bulb" viewBox="0 0 24 24" fill="none" stroke="currentColor" stroke-width="1.6" stroke-linecap="round" stroke-linejoin="round">
    <path d="M9 17h6M9.5 20h5"></path><path d="M12 3.5a6 6 0 0 1 3.7 10.7c-.7.6-1.2 1.2-1.2 2.3h-5c0-1.1-.5-1.7-1.2-2.3A6 6 0 0 1 12 3.5Z"></path>
  </symbol>
  <symbol id="sl-mail" viewBox="0 0 24 24" fill="none" stroke="currentColor" stroke-width="1.6" stroke-linecap="round" stroke-linejoin="round">
    <rect x="3.5" y="5.5" width="17" height="13" rx="2"></rect><path d="m4 7 8 6 8-6"></path>
  </symbol>
  <symbol id="sl-phone" viewBox="0 0 24 24" fill="none" stroke="currentColor" stroke-width="1.6" stroke-linecap="round" stroke-linejoin="round">
    <rect x="7" y="3.5" width="10" height="17" rx="2"></rect><path d="M11 17.5h2"></path>
  </symbol>
  <symbol id="sl-clock" viewBox="0 0 24 24" fill="none" stroke="currentColor" stroke-width="1.6" stroke-linecap="round" stroke-linejoin="round">
    <circle cx="12" cy="12" r="8.5"></circle><path d="M12 7.5V12l3 2"></path>
  </symbol>
  <symbol id="sl-chevron-left" viewBox="0 0 24 24" fill="none" stroke="currentColor" stroke-width="1.6" stroke-linecap="round" stroke-linejoin="round">
    <path d="M14.5 6 8.5 12l6 6"></path>
  </symbol>
  <symbol id="sl-chevron-right" viewBox="0 0 24 24" fill="none" stroke="currentColor" stroke-width="1.6" stroke-linecap="round" stroke-linejoin="round">
    <path d="M9.5 6 15.5 12l-6 6"></path>
  </symbol>
  <symbol id="sl-arrow-right" viewBox="0 0 24 24" fill="none" stroke="currentColor" stroke-width="1.6" stroke-linecap="round" stroke-linejoin="round">
    <path d="M4.5 12h15M13 5.5 19.5 12 13 18.5"></path>
  </symbol>
  <symbol id="sl-arrow-left" viewBox="0 0 24 24" fill="none" stroke="currentColor" stroke-width="1.6" stroke-linecap="round" stroke-linejoin="round">
    <path d="M19.5 12h-15M11 5.5 4.5 12 11 18.5"></path>
  </symbol>
  <symbol id="sl-code" viewBox="0 0 24 24" fill="none" stroke="currentColor" stroke-width="1.6" stroke-linecap="round" stroke-linejoin="round">
    <path d="m8.5 8-4 4 4 4M15.5 8l4 4-4 4M13.5 5.5l-3 13"></path>
  </symbol>
  <symbol id="sl-terminal" viewBox="0 0 24 24" fill="none" stroke="currentColor" stroke-width="1.6" stroke-linecap="round" stroke-linejoin="round">
    <rect x="3.5" y="4.5" width="17" height="15" rx="2"></rect><path d="m7 9.5 3 2.5-3 2.5M12.5 15h4"></path>
  </symbol>
  <symbol id="sl-book" viewBox="0 0 24 24" fill="none" stroke="currentColor" stroke-width="1.6" stroke-linecap="round" stroke-linejoin="round">
    <path d="M4 5.5A2 2 0 0 1 6 4h6v15H6a2 2 0 0 0-2 1.5V5.5Z"></path><path d="M20 5.5A2 2 0 0 0 18 4h-6v15h6a2 2 0 0 1 2 1.5V5.5Z"></path>
  </symbol>
  <symbol id="sl-layers" viewBox="0 0 24 24" fill="none" stroke="currentColor" stroke-width="1.6" stroke-linecap="round" stroke-linejoin="round">
    <path d="M12 3.5 21 8l-9 4.5L3 8l9-4.5Z"></path><path d="m3 12.5 9 4.5 9-4.5M3 16.5 12 21l9-4.5"></path>
  </symbol>
  <symbol id="sl-search" viewBox="0 0 24 24" fill="none" stroke="currentColor" stroke-width="1.6" stroke-linecap="round" stroke-linejoin="round">
    <circle cx="11" cy="11" r="6.5"></circle><path d="m16 16 4 4"></path>
  </symbol>
  <symbol id="sl-user" viewBox="0 0 24 24" fill="none" stroke="currentColor" stroke-width="1.6" stroke-linecap="round" stroke-linejoin="round">
    <circle cx="12" cy="8.5" r="3.8"></circle><path d="M5 20c.8-3.4 3.6-5.5 7-5.5s6.2 2.1 7 5.5"></path>
  </symbol>
  <symbol id="sl-menu" viewBox="0 0 24 24" fill="none" stroke="currentColor" stroke-width="1.6" stroke-linecap="round" stroke-linejoin="round">
    <path d="M4 7h16M4 12h16M4 17h16"></path>
  </symbol>
  <symbol id="sl-external" viewBox="0 0 24 24" fill="none" stroke="currentColor" stroke-width="1.6" stroke-linecap="round" stroke-linejoin="round">
    <path d="M14 5h5v5M19 5l-8 8M17 13.5V18a2 2 0 0 1-2 2H6a2 2 0 0 1-2-2V9a2 2 0 0 1 2-2h4.5"></path>
  </symbol>
  <symbol id="sl-sparkle" viewBox="0 0 24 24" fill="none" stroke="currentColor" stroke-width="1.6" stroke-linecap="round" stroke-linejoin="round">
    <path d="M12 4c.6 3.6 1.8 4.8 5.4 5.4-3.6.6-4.8 1.8-5.4 5.4-.6-3.6-1.8-4.8-5.4-5.4C10.2 8.8 11.4 7.6 12 4Z"></path><path d="M18 15c.3 1.5.8 2 2.3 2.3-1.5.3-2 .8-2.3 2.3-.3-1.5-.8-2-2.3-2.3 1.5-.3 2-.8 2.3-2.3Z"></path>
  </symbol>
  <symbol id="sl-plus" viewBox="0 0 24 24" fill="none" stroke="currentColor" stroke-width="1.6" stroke-linecap="round" stroke-linejoin="round">
    <path d="M12 5v14M5 12h14"></path>
  </symbol>
  <symbol id="sl-x" viewBox="0 0 24 24" fill="none" stroke="currentColor" stroke-width="1.6" stroke-linecap="round" stroke-linejoin="round">
    <path d="M6 6l12 12M18 6 6 18"></path>
  </symbol>
  <symbol id="sl-circle-dot" viewBox="0 0 24 24" fill="none" stroke="currentColor" stroke-width="1.6" stroke-linecap="round" stroke-linejoin="round">
    <circle cx="12" cy="12" r="8.5"></circle><circle cx="12" cy="12" r="2.5" fill="currentColor" stroke="none"></circle>
  </symbol>
</svg>